<?xml version="1.0" encoding="UTF-8"?><svg id="Layer_1" xmlns="http://www.w3.org/2000/svg" viewBox="0 0 13.45 15.03"><defs><style>.cls-1{fill:#eee;}.cls-2{fill:#e65100;}.cls-3{fill:#fff;}.cls-4{fill:#ff6d00;}</style></defs><path class="cls-2" d="M13.45,0H0L1.19,13.45l5.54,1.58,5.54-1.58L13.45,0h0Z"/><path class="cls-4" d="M6.72,1.19V13.8l4.43-1.27,.99-11.35H6.72Z"/><path class="cls-3" d="M6.72,7.91v-1.58h3.4l-.28,4.55-3.12,1.03v-1.66l1.62-.55,.12-1.78h-1.74Zm3.52-3.16l.12-1.58h-3.64v1.58h3.52Z"/><path class="cls-1" d="M6.72,10.24v1.66l-3.12-1.03-.16-2.18h1.58l.08,.99,1.62,.55Zm-1.94-5.5h1.94v-1.58H3.12l.28,4.75h3.32v-1.58h-1.82l-.12-1.58Z"/></svg>