<?xml version="1.0" encoding="UTF-8"?><svg id="Layer_1" xmlns="http://www.w3.org/2000/svg" viewBox="0 0 42.92 47.97"><defs><style>.cls-1{fill:#0277bd;}.cls-2{fill:#039be5;}.cls-3{fill:#eee;}.cls-4{fill:#fff;}</style></defs><path class="cls-1" d="M42.92,0H0L3.79,42.92l17.67,5.05,17.67-5.05L42.92,0h0Z"/><path class="cls-2" d="M21.46,3.79V44.05l14.14-4.04L38.75,3.79H21.46Z"/><path class="cls-4" d="M32.95,10.1h-11.49v5.05h6.19l-.38,5.05h-5.81v5.05h5.55l-.38,5.68-5.18,1.77v5.3l9.97-3.28,.88-14.52h0l.63-10.1Z"/><path class="cls-3" d="M21.46,10.1v5.05H10.22l-.38-5.05h11.61Zm-5.81,10.1l.25,5.05h5.55v-5.05h-5.81Zm.5,7.57h-5.05l.38,6.94,9.97,3.28v-5.3l-5.18-1.77-.13-3.16Z"/></svg>