
<svg id="Layer_1" xmlns="http://www.w3.org/2000/svg" viewBox="0 0 60 60"><defs><style>.cls-1{fill:#f6df19;}.cls-2{fill:#020202;}</style></defs><path class="cls-1" d="M0,60V0H60V60H0Z"/><path class="cls-2" d="M39.23,44.91c1.15,1.87,2.41,3.67,5.06,3.67,2.23,0,3.4-1.11,3.4-2.64,0-1.84-1.21-2.49-3.66-3.55l-1.34-.57c-3.88-1.65-6.46-3.71-6.46-8.07,0-4.02,3.07-7.07,7.88-7.07,3.42,0,5.88,1.19,7.65,4.29l-4.19,2.68c-.92-1.65-1.92-2.3-3.46-2.3s-2.58,1-2.58,2.3c0,1.61,1,2.26,3.31,3.25l1.34,.57c4.58,1.95,7.16,3.94,7.16,8.41,0,4.82-3.81,7.46-8.92,7.46s-7.84-2.51-9.42-5.61l4.23-2.81h0Zm-19.31,.13c.84,1.51,2.12,2.67,3.97,2.67s2.78-.7,2.78-3.4V26.67h5.56v18.5c0,5.61-3.25,8.17-8.01,8.17-4.29,0-7.4-2.91-8.66-5.61l4.36-2.67h0Z"/></svg>