<?xml version="1.0" encoding="UTF-8"?><svg id="Layer_1" xmlns="http://www.w3.org/2000/svg" viewBox="0 0 48 19.05"><defs><style>.cls-1{fill:#37474f;}.cls-2{fill:#2e7d32;}.cls-3{fill:#388e3c;}.cls-4{fill:#4caf50;}</style></defs><path class="cls-3" d="M17.2,7.12l-4.91,2.72c-.18,.1-.3,.29-.3,.49v5.43c0,.2,.11,.39,.3,.49l4.91,2.72c.18,.1,.41,.1,.59,0l4.91-2.72c.18-.1,.3-.29,.3-.49v-5.43c0-.2-.11-.39-.3-.49l-4.91-2.72c-.09-.05-.19-.08-.3-.08s-.2,.02-.3,.08m25.25,4.89l-.82,.45s-.05,.05-.05,.08v.91s.02,.07,.05,.08l.82,.45s.07,.02,.1,0l.82-.45s.05-.05,.05-.08v-.91s-.02-.07-.05-.08l-.82-.45s-.03-.01-.05-.01-.03,0-.05,.01"/><path class="cls-1" d="M35.75,1.36L33.36,.03c-.08-.04-.17-.04-.24,0-.07,.04-.12,.12-.12,.21V8.29l-2.2-1.22c-.09-.05-.2-.08-.3-.08s-.2,.02-.3,.08h0l-4.91,2.72c-.18,.1-.3,.29-.3,.49v5.43c0,.2,.11,.39,.3,.49l4.91,2.72c.18,.1,.41,.1,.59,0l4.91-2.72c.18-.1,.29-.29,.29-.49V1.79c0-.18-.1-.34-.25-.42Zm-2.88,13.09l-2.23,1.24c-.08,.05-.19,.05-.27,0l-2.23-1.24c-.09-.05-.14-.13-.14-.22v-2.47c0-.09,.05-.18,.14-.22l2.23-1.23h0s.09-.03,.14-.03,.09,.01,.14,.03l2.23,1.23c.08,.05,.13,.13,.13,.23v2.47c0,.09-.05,.18-.13,.22Z"/><path class="cls-2" d="M17.2,7.12l-5.2,8.64c0,.2,.11,.39,.3,.49l4.91,2.72c.18,.1,.41,.1,.59,0l5.2-8.64c0-.2-.11-.39-.3-.49l-4.91-2.72c-.09-.05-.19-.08-.3-.08s-.2,.02-.3,.08"/><path class="cls-4" d="M17.2,7.12l-4.91,2.72c-.18,.1-.3,.29-.3,.49l5.2,8.64c.18,.1,.41,.1,.59,0l4.91-2.72c.18-.1,.3-.29,.3-.49l-5.2-8.64c-.09-.05-.19-.08-.3-.08s-.2,.02-.3,.08"/><path class="cls-1" d="M47.7,9.79l-4.91-2.72c-.09-.05-.19-.08-.3-.08s-.21,.02-.3,.08h0l-4.91,2.72c-.18,.1-.3,.29-.3,.5v5.41c0,.21,.11,.4,.3,.5l4.91,2.72c.18,.1,.41,.1,.59,0l2.26-1.25c.21-.11,.21-.41,0-.53l-4.92-2.69c-.08-.05-.14-.13-.14-.23v-2.47c0-.09,.05-.18,.13-.22l2.24-1.24h0s.09-.03,.13-.03,.09,.01,.13,.03l2.24,1.24c.08,.04,.13,.13,.13,.22v2.01c0,.09,.05,.17,.12,.21,.08,.04,.17,.04,.24,0l2.4-1.39c.15-.09,.24-.25,.24-.42v-1.88c0-.21-.11-.4-.3-.51Zm-37,0l-4.91-2.72c-.09-.05-.19-.08-.3-.08s-.2,.02-.3,.08h0L.3,9.79c-.18,.1-.3,.29-.3,.5v7.47c0,.09,.05,.17,.12,.21,.08,.04,.17,.04,.24,0l2.4-1.39c.15-.09,.24-.25,.24-.42v-4.39c0-.09,.05-.18,.13-.22l2.23-1.24h0s.09-.03,.14-.03,.09,.01,.14,.03l2.23,1.24c.08,.04,.13,.13,.13,.22v4.39c0,.17,.09,.33,.24,.42l2.4,1.39c.07,.04,.17,.04,.24,0,.07-.04,.12-.12,.12-.21v-7.46c0-.21-.11-.4-.3-.5Z"/></svg>