<?xml version="1.0" encoding="UTF-8"?><svg id="Layer_1" xmlns="http://www.w3.org/2000/svg" viewBox="0 0 47.93 42.88"><defs><style>.cls-1{fill:#80deea;}</style></defs><path class="cls-1" d="M23.97,31.83C10.52,31.83,0,27.25,0,21.41S10.52,10.99,23.97,10.99s23.97,4.59,23.97,10.42-10.52,10.42-23.97,10.42Zm0-18.76c-13.13,0-21.88,4.27-21.88,8.34s8.75,8.34,21.88,8.34,21.88-4.27,21.88-8.34-8.75-8.34-21.88-8.34Z"/><path class="cls-1" d="M14.69,42.88c-1.04,0-1.88-.21-2.71-.73-5.11-2.92-3.75-14.28,2.92-25.95h0c3.13-5.42,6.98-10,10.73-12.92C29.7,.16,33.35-.78,35.85,.68c2.61,1.46,3.54,5.11,2.92,10.21-.63,4.79-2.71,10.42-5.84,15.84-3.13,5.42-6.98,10-10.73,12.92-2.71,2.08-5.31,3.23-7.5,3.23ZM33.24,2.03c-1.67,0-3.86,.94-6.25,2.81-3.54,2.81-7.19,7.19-10.21,12.4h0c-6.56,11.36-7.19,21.15-3.75,23.13,1.77,1.04,4.69,.1,7.92-2.4,3.54-2.81,7.19-7.19,10.21-12.4,3.02-5.21,5-10.52,5.63-15.01,.52-4.17-.1-7.09-1.88-8.13-.52-.21-1.04-.42-1.67-.42Z"/><path class="cls-1" d="M33.35,42.88c-5.21,0-12.71-6.36-18.34-16.26C8.23,14.95,6.88,3.59,11.98,.68h0c5.11-2.92,14.28,3.86,21.05,15.53,3.13,5.42,5.21,11.05,5.84,15.84,.73,5.11-.31,8.65-2.92,10.21-.83,.42-1.67,.63-2.61,.63ZM13.03,2.45c-3.44,1.98-2.81,11.78,3.75,23.13,6.56,11.36,14.69,16.78,18.13,14.8,1.77-1.04,2.4-3.96,1.88-8.13-.63-4.48-2.61-9.8-5.63-15.01C24.59,5.89,16.46,.47,13.03,2.45h0Z"/><circle class="cls-1" cx="23.97" cy="21.41" r="4.17"/></svg>