<?xml version="1.0" encoding="UTF-8"?><svg id="Layer_1" xmlns="http://www.w3.org/2000/svg" viewBox="0 0 47.98 47.98"><defs><style>.cls-1{fill:#e91e63;}.cls-2{fill:#16020b;}</style></defs><path class="cls-1" d="M0,5.33C0,2.39,2.39,0,5.33,0H42.65c2.94,0,5.33,2.39,5.33,5.33V42.65c0,2.94-2.39,5.33-5.33,5.33H5.33c-2.94,0-5.33-2.39-5.33-5.33V5.33Z"/><path class="cls-2" d="M28.37,22.06c-.68,0-1.17,.27-1.48,.82s-.47,1.52-.47,2.92v.98c0,1.39,.15,2.36,.44,2.91s.79,.83,1.5,.83,1.28-.33,1.65-.98v-6.43c-.36-.7-.91-1.04-1.64-1.04Z"/><path class="cls-2" d="M4,4V43.98H43.98V4H4Zm16.18,29.32h-3.83V14.37h3.83v18.95Zm13.54,0h-3.35l-.17-1.43c-.75,1.13-1.73,1.69-2.92,1.69-1.48,0-2.6-.56-3.38-1.69s-1.17-2.79-1.19-4.97v-1.07c0-2.31,.39-4.03,1.17-5.17s1.92-1.7,3.41-1.7c1.08,0,1.99,.47,2.71,1.41v-7.06h3.71v19.99h0Z"/></svg>