<?xml version="1.0" encoding="UTF-8"?><svg id="Layer_1" xmlns="http://www.w3.org/2000/svg" xmlns:xlink="http://www.w3.org/1999/xlink" viewBox="0 0 64 61"><defs><style>.cls-1{fill:url(#radial-gradient);}.cls-1,.cls-2,.cls-3{fill-rule:evenodd;}.cls-2{fill:url(#linear-gradient);}.cls-3{fill:#fff;}</style><radialGradient id="radial-gradient" cx="32" cy="-563.5" fx="32" fy="-563.5" r="31.26" gradientTransform="translate(0 594)" gradientUnits="userSpaceOnUse"><stop offset="0" stop-color="#c5f1ff"/><stop offset=".35" stop-color="#cdf3ff"/><stop offset=".91" stop-color="#e4faff"/><stop offset="1" stop-color="#e9fbff"/></radialGradient><linearGradient id="linear-gradient" x1="52.98" y1="4.86" x2="11.62" y2="50.47" gradientTransform="translate(0 61) scale(1 -1)" gradientUnits="userSpaceOnUse"><stop offset="0" stop-color="#823af3"/><stop offset=".36" stop-color="#4b66e1"/><stop offset=".91" stop-color="#01f1c4"/></linearGradient></defs><path class="cls-1" d="M58,53c-1.1,0-2-.9-2-2s.9-2,2-2h2.5c1.92,0,3.5-1.58,3.5-3.5s-1.58-3.5-3.5-3.5h-10.5c-1.38,0-2.5-1.12-2.5-2.5s1.12-2.5,2.5-2.5h8c1.65,0,3-1.35,3-3s-1.35-3-3-3h-16v-6h18c2.33,0,4.22-2.03,3.98-4.41-.21-2.08-2.08-3.59-4.17-3.59h-1.81c-1.1,0-2-.9-2-2s.9-2,2-2h.36c1.31,0,2.5-.94,2.63-2.24,.15-1.5-1.02-2.76-2.49-2.76h-14c-.83,0-1.5-.67-1.5-1.5s.67-1.5,1.5-1.5h3.86c1.31,0,2.5-.94,2.63-2.24,.15-1.5-1.02-2.76-2.49-2.76H15.64c-1.31,0-2.5,.94-2.63,2.24-.15,1.5,1.02,2.76,2.49,2.76h3.5c1.1,0,2,.89,2,2s-.9,2-2,2H6.19c-2.09,0-3.96,1.51-4.17,3.59-.24,2.38,1.64,4.41,3.98,4.41h2.5c1.93,0,3.5,1.57,3.5,3.5s-1.57,3.5-3.5,3.5h-3.31c-2.09,0-3.96,1.51-4.17,3.59-.24,2.38,1.64,4.41,3.98,4.41H22v11H6c-1.65,0-3,1.35-3,3s1.35,3,3,3h0c1.11,0,2,.9,2,2s-.89,2-2,2h-1.81c-2.09,0-3.96,1.51-4.17,3.59-.24,2.38,1.64,4.41,3.98,4.41H57.81c2.09,0,3.96-1.51,4.17-3.59,.24-2.38-1.64-4.41-3.98-4.41Z"/><path class="cls-2" d="M50,11H14c-2.21,0-4,1.79-4,4V51c0,2.21,1.79,4,4,4H50c2.21,0,4-1.79,4-4V15c0-2.21-1.79-4-4-4Z"/><path class="cls-3" d="M40.45,40.95c-1.48,1.36-2.44,2.29-4.59,3.39-1.23,.62-2.62,.99-3.92,.99-3.92,0-5.83-3.61-6.21-6.73-.98-8,6.05-18.99,10.95-18.99,1.14,0,2.16,.99,2.35,2.54,.29,2.41,.25,4.12-2.25,6.2-.27,.23-.35,.6-.21,.81,.21,.33,.88,.36,2.24-.33,2.65-1.34,3.61-3.4,3.32-5.8-.33-2.65-2.64-4.88-5.75-4.88-1.51,0-3.17,.45-4.65,1.35-6.46,3.94-10.63,12.92-9.8,19.77,.26,2.17,1.17,4.55,2.88,6.15,1.15,1.07,3.23,2.38,5.68,2.38,2.65,0,4.9-1.03,6.91-2.29,1.36-.87,2.5-1.93,3.47-3.01,1.58-1.47,.44-2.38-.41-1.57Z"/></svg>