<?xml version="1.0" encoding="UTF-8"?><svg id="Layer_1" xmlns="http://www.w3.org/2000/svg" viewBox="0 0 31.98 47.98"><defs><style>.cls-1{fill:#66bb6a;}.cls-2{fill:#e64a19;}.cls-3{fill:#ff7043;}.cls-4{fill:#29b6f6;}.cls-5{fill:#7c4dff;}</style></defs><path class="cls-2" d="M17.13,15.99H8C3.58,15.99,0,12.41,0,8H0C0,3.58,3.58,0,8,0h9.14V15.99Z"/><path class="cls-5" d="M15.99,31.98H8c-4.42,0-8-3.58-8-8H0c0-4.42,3.58-8,8-8h8v15.99Z"/><path class="cls-1" d="M8,47.98h0c-4.42,0-8-3.58-8-8H0c0-4.42,3.58-8,8-8h8v8c0,4.42-3.58,8-8,8Z"/><path class="cls-3" d="M23.99,15.99h-8V0h8c4.42,0,8,3.58,8,8h0c0,4.42-3.58,8-8,8Z"/><circle class="cls-4" cx="23.99" cy="23.99" r="8"/></svg>