<?xml version="1.0" encoding="UTF-8"?><svg id="Layer_1" xmlns="http://www.w3.org/2000/svg" viewBox="0 0 48 48"><defs><style>.cls-1{fill:#ff5722;}.cls-2{fill:#1c0802;}</style></defs><path class="cls-1" d="M0,5.33C0,2.39,2.39,0,5.33,0H42.67c2.95,0,5.33,2.39,5.33,5.33V42.67c0,2.95-2.39,5.33-5.33,5.33H5.33c-2.95,0-5.33-2.39-5.33-5.33V5.33Z"/><path class="cls-2" d="M4,4V44H44V4H4Zm19.59,29.33l-1.02-3.88h-5.22l-1.01,3.88h-4.05l5.92-18.96h3.5l5.96,18.96h-4.09Zm9.55,0h-3.7v-14.09h3.7v14.09Zm-.4-16.33c-.36,.37-.85,.56-1.47,.56s-1.1-.19-1.47-.56-.54-.84-.54-1.41,.18-1.04,.55-1.41,.85-.55,1.46-.55,1.09,.18,1.46,.55,.55,.83,.55,1.41c0,.56-.18,1.03-.54,1.41Z"/><path class="cls-2" d="M18.19,26.26h3.54l-1.77-6.76-1.77,6.76Z"/></svg>