<?xml version="1.0" encoding="UTF-8"?><svg id="Layer_1" xmlns="http://www.w3.org/2000/svg" viewBox="0 0 59.7 59.7"><defs><style>.cls-1{fill:#fdc113;}.cls-2{fill:#0977be;}</style></defs><path class="cls-2" d="M30.61,0c-2.44,0-4.14,.22-6.18,.58-6.05,1.05-7.15,3.26-7.15,7.34v6.23h14.14v3.14H9.91c-4.14,0-7.77,1.95-8.91,6.63-1.3,5.37-1.36,8.73,0,14.34,1.03,4.18,3.3,7.31,7.44,7.31h5.71v-8.02c0-4.66,4.22-9.26,9.06-9.26h11.37c3.96,0,7.85-2.93,7.85-6.88V7.91c0-3.83-2.76-6.7-6.63-7.34,.1,0-2.76-.58-5.18-.57Zm-7.83,6.28c1.29,0,2.36,1.06,2.36,2.36s-1.07,2.35-2.36,2.35-2.36-1.04-2.36-2.35,1.04-2.36,2.36-2.36Z"/><path class="cls-1" d="M29.09,59.7c2.44,0,4.14-.22,6.18-.58,6.05-1.05,7.15-3.26,7.15-7.34v-6.23h-14.14v-3.14h21.51c4.14,0,7.77-1.95,8.91-6.63,1.3-5.37,1.36-8.73,0-14.34-1.03-4.18-3.3-7.31-7.44-7.31h-5.71v8.02c0,4.66-4.22,9.26-9.06,9.26h-11.37c-3.96,0-7.85,2.93-7.85,6.88v13.49c0,3.83,2.76,6.7,6.63,7.34-.1,0,2.76,.58,5.18,.57Zm7.83-6.28c-1.29,0-2.36-1.06-2.36-2.36s1.07-2.35,2.36-2.35,2.36,1.04,2.36,2.35-1.04,2.36-2.36,2.36Z"/></svg>