<?xml version="1.0" encoding="UTF-8"?><svg id="Layer_1" xmlns="http://www.w3.org/2000/svg" xmlns:xlink="http://www.w3.org/1999/xlink" viewBox="0 0 65.93 59.11"><defs><style>.cls-1{fill:#fdb300;}.cls-1,.cls-2,.cls-3,.cls-4,.cls-5{fill-rule:evenodd;}.cls-2{fill:#ea6c00;}.cls-3{fill:#fdad00;}.cls-4{fill:#fdd231;}.cls-5{fill:#feeeb7;}</style><symbol id="A" viewBox="0 0 64.01 57.39"><g><path class="cls-1" d="M13.96,55.5l18.04,1.89,18.05-1.89,13.96-18.57L32,0,0,36.93l13.96,18.57Z"/><g><path class="cls-2" d="M12.96,36.7L32,0,0,36.7H12.96Z"/><path class="cls-2" d="M51.04,36.7L32,0l32,36.7h-12.96Z"/></g><path class="cls-3" d="M12.67,36.7H50.67L31.67,0,12.67,36.7Z"/><path class="cls-4" d="M31.35,57.39l-17.7-1.91-.98-18.79,18.68,20.7Zm.63,0l17.7-1.91,.98-18.79-18.68,20.7Z"/><path class="cls-3" d="M64,36.7l-14,18.69,1.01-18.69h12.99ZM0,36.7l14,18.69-1.01-18.69H0Z"/><path class="cls-5" d="M31.67,57.39L12.67,36.69H50.67l-19,20.7Z"/></g></symbol></defs><use width="64.01" height="57.39" transform="translate(0 59.11) scale(1.03 -1.03)" xlink:href="#A"/></svg>