<?xml version="1.0" encoding="UTF-8"?><svg id="Layer_1" xmlns="http://www.w3.org/2000/svg" viewBox="0 0 48 48"><defs><style>.cls-1{fill:#ff41c8;}.cls-2{fill:#16020b;}</style></defs><path class="cls-1" d="M0,5.33C0,2.39,2.39,0,5.33,0H42.67c2.95,0,5.33,2.39,5.33,5.33V42.67c0,2.95-2.39,5.33-5.33,5.33H5.33c-2.95,0-5.33-2.39-5.33-5.33V5.33Z"/><path class="cls-2" d="M4,4V44H44V4H4Zm13.46,16.93l2.55-6.51h4.39l-4.45,9.4,4.56,9.56h-4.44l-2.6-6.63-2.59,6.63h-4.44l4.56-9.56-4.47-9.4h4.39l2.55,6.51Zm7.97,4.97c0-2.31,.39-4.03,1.17-5.17s1.92-1.71,3.41-1.71c1.08,0,1.99,.47,2.71,1.41v-7.06h3.71v20h-3.35l-.17-1.43c-.75,1.13-1.73,1.69-2.92,1.69-1.47,0-2.6-.56-3.38-1.69s-1.17-2.79-1.19-4.97v-1.07h0Zm3.7,.92c0,1.39,.15,2.36,.44,2.91s.79,.83,1.5,.83,1.28-.33,1.65-.98v-6.43c-.36-.69-.91-1.04-1.64-1.04-.68,0-1.17,.27-1.48,.82s-.47,1.52-.47,2.92v.97Z"/></svg>