<?xml version="1.0" encoding="UTF-8"?><svg id="Layer_1" xmlns="http://www.w3.org/2000/svg" xmlns:xlink="http://www.w3.org/1999/xlink" viewBox="0 0 498.6 403.13"><defs><style>.cls-1{fill:url(#linear-gradient);}.cls-2{fill:#231f1f;}.cls-3{fill:url(#linear-gradient-2);}.cls-4{fill:url(#radial-gradient);}</style><linearGradient id="linear-gradient" x1="220.03" y1="227.83" x2="220.23" y2="227.83" gradientTransform="translate(-35181.26 -9516.62) rotate(-30.58) scale(115.95)" gradientUnits="userSpaceOnUse"><stop offset="0" stop-color="#909ca9"/><stop offset="1" stop-color="#ededee"/></linearGradient><linearGradient id="linear-gradient-2" x1="217.44" y1="237.47" x2="217.64" y2="237.47" gradientTransform="translate(-17243.66 -19047.22) scale(80.32)" gradientUnits="userSpaceOnUse"><stop offset="0" stop-color="#939fab"/><stop offset="1" stop-color="#dcdee1"/></linearGradient><radialGradient id="radial-gradient" cx="223.56" cy="230.37" fx="223.56" fy="230.37" r=".2" gradientTransform="translate(16029.16 50719.84) rotate(-171.46) scale(103.55 207.16) skewX(-.19)" gradientUnits="userSpaceOnUse"><stop offset="0" stop-color="#ee352c"/><stop offset="1" stop-color="#a91d22"/></radialGradient></defs><path class="cls-1" d="M338.04,128.35l-55.06,17.98-47.91,21.15-13.4,3.54c-3.42,3.25-6.99,6.53-10.86,9.86-4.25,3.66-8.2,6.99-11.24,9.41-3.37,2.66-8.36,7.66-10.9,10.82-3.78,4.74-6.79,9.78-8.07,13.65-2.29,6.99-1.16,14.07,3.25,20.6,5.66,8.32,16.94,16.82,30.09,22.59,6.71,2.95,17.98,6.75,26.47,8.87,14.11,3.58,41.42,7.44,56.43,8.03,3.03,.12,7.12,.12,7.28,0,.33-.2,2.66-4.66,5.37-10.19,9.23-18.85,15.9-36.54,19.52-51.65,2.16-9.15,3.87-21.35,5-35.79,.29-4.04,.41-17.57,.16-22.14-.37-7.49-1.04-13.56-2.08-19.52-.16-.87-.2-1.67-.12-1.71,.16-.12,.67-.29,7.44-2.25l-1.38-3.24h0Zm-12.57,7.38c.51,0,1.83,12.77,2.16,20.85,.08,1.71,.04,2.83-.04,2.83-.33,0-7.03-3.95-11.82-6.95-4.17-2.62-12.08-7.87-13.32-8.87-.42-.29-.37-.33,3.03-1.5,5.79-1.94,19.52-6.35,19.98-6.35Zm-28.06,9.23c.37,0,1.33,.55,3.62,1.95,8.58,5.37,20.23,11.86,25.22,14.03,1.54,.67,1.71,.41-1.83,2.83-7.58,5.16-17.02,10.23-28.59,15.35-2.04,.92-3.74,1.63-3.78,1.63-.08,0,.16-1.04,.51-2.29,2.79-10.37,4.37-20.85,4.45-29.26q.04-4.17,.41-4.29c-.08,.05-.04,.05,0,.05Zm-5.78,2.21c.25,.25,.08,9.58-.25,12.12-.75,6.08-1.91,11.73-3.82,18.1-.46,1.54-.87,2.83-.96,2.91-.16,.2-5.87-5.37-7.75-7.53-3.25-3.74-5.78-7.49-7.66-11.16-.96-1.87-2.46-5.53-2.34-5.66,.67-.46,22.61-8.95,22.77-8.78Zm-27.22,10.7s.08,0,.12,.04c.08,.08,.37,.75,.63,1.5,1.33,3.62,4.33,8.95,6.91,12.36,2.83,3.74,6.53,7.75,9.62,10.37,1,.83,1.91,1.63,2.04,1.75,.25,.25,.33,.2-6.45,2.79-7.87,2.99-16.43,6-26.27,9.15-2.35,.75-4.69,1.52-7.03,2.29-.37,.12-.25-.08,.83-1.79,4.86-7.62,12.28-22.55,16.43-33.13,.71-1.83,1.42-3.66,1.54-4.08,.16-.59,.37-.79,.92-1.08,.3-.1,.59-.18,.71-.18Zm-8.32,3.46c.12,.08-1.99,4.54-4.08,8.62-4.04,7.87-8.46,15.61-14.36,25.01-1,1.63-1.95,3.13-2.08,3.29-.2,.29-.29,.2-.96-1.08-1.42-2.79-2.58-6.37-3.21-9.66-.63-3.25-.51-8.91,.2-12.4,.55-2.58,.51-2.54,1.75-3.17,5.33-2.72,22.57-10.79,22.73-10.61Zm71.8,2.91v1.75c0,9.28-1,22.02-2.46,31.3-.25,1.63-.46,2.95-.51,2.99,0,0-1.2-.33-2.62-.75-6.24-1.95-13.03-4.82-19.15-8.2-4.04-2.2-9.9-5.83-9.74-6,.04-.04,1.79-.96,3.82-2.04,8.16-4.25,15.98-8.82,22.77-13.36,2.54-1.71,6.37-4.45,7.2-5.2l.68-.49Zm-103.22,12.32c.16,0,.12,.33-.12,1.83-.16,1.08-.37,3.07-.45,4.45-.33,6.08,.67,10.57,3.66,16.73,.83,1.71,1.5,3.13,1.46,3.17-.29,.25-27.84,8.32-36.5,10.7-2.58,.71-4.82,1.33-5,1.38-.29,.08-.33,.04-.2-.67,.96-6.12,5.61-14.11,12.12-20.85,4.33-4.49,7.79-7.12,13.69-10.49,4.25-2.42,10.78-6.04,11.28-6.2-.03-.05,.03-.05,.07-.05Zm64.93,11.61s1.04,.51,2.24,1.2c8.91,5.16,21.31,9.94,31.88,12.4l.96,.2-1.34,.75c-5.53,3.07-23.73,10.65-42.33,17.61-2.7,1-5.37,1.99-5.87,2.2s-.96,.33-.96,.29,.75-1.5,1.71-3.29c5.2-9.74,10.45-21.6,13.11-29.85,.34-.76,.55-1.48,.6-1.52h0Zm-6.63,2.16s-.29,.92-.71,1.91c-3.62,8.78-8.36,18.36-14.44,29.1-1.54,2.75-2.83,4.96-2.87,4.96s-1.28-.75-2.79-1.67c-8.82-5.41-16.65-12.08-21.76-18.52l-.75-.92,3.78-1.04c13.56-3.7,25.09-7.7,36.54-12.61,1.63-.67,2.95-1.22,2.99-1.22Zm41.12,14.36s.04,.04,0,0c.04,.96-2.08,9.53-3.82,15.74-1.46,5.2-2.7,9.28-5,16.49-1,3.17-1.87,5.79-1.91,5.79s-.29-.04-.55-.12c-12.36-2.25-23.43-5.37-33.84-9.53-2.91-1.16-7.08-3.03-7.32-3.25-.08-.08,2.42-1.24,5.57-2.62,18.93-8.28,38.58-17.69,45.32-21.72,.79-.51,1.42-.76,1.54-.76Zm-94.92,3.25c.08,.08-5.2,7.7-12.61,18.06-2.58,3.62-5.57,7.87-6.69,9.45-1.12,1.58-2.83,4.08-3.78,5.57l-1.75,2.7-1.87-1.58c-2.2-1.83-6.04-5.74-7.75-7.91-3.58-4.45-6-9.15-6.95-13.44-.46-1.99-.46-2.99-.04-3.13,.63-.16,11.73-2.79,22.14-5.2,5.79-1.33,12.49-2.91,14.9-3.5,2.39-.57,4.36-1.02,4.4-1.02Zm5.33,2.04l1.33,1.5c6,6.71,12.12,11.65,19.52,15.98,1.34,.75,2.34,1.42,2.24,1.46-.29,.2-25.72,9.23-37.5,13.32-6.61,2.34-12.08,4.21-12.12,4.21s-.41-.25-.83-.55l-.75-.55,1.2-1.75c3.91-5.66,8.82-11.86,19.52-24.77l7.39-8.87h0Zm33.21,23.77s1.87,.63,4.13,1.46c5.41,2.04,9.7,3.33,15.44,4.78,7.08,1.79,17.31,3.54,23.35,4.04,.92,.08,1.42,.16,1.24,.29-.29,.16-6.41,2.21-10.9,3.62-7.16,2.24-29.01,8.7-46.83,13.82-3.29,.96-6.12,1.75-6.28,1.79-.41,.08-1.79-.29-1.79-.46,0-.08,1-1.38,2.2-2.79,6-7.16,11.94-15.15,16.9-22.73,1.39-2.08,2.55-3.78,2.55-3.82Zm-7.32,.2s-2.91,4.78-8.07,12.95c-2.21,3.46-4.66,7.36-5.53,8.74-.83,1.33-2.08,3.42-2.79,4.58l-1.2,2.12-.63-.16c-1.5-.41-12.03-4.13-14.82-5.25-3.46-1.38-7.03-3.03-9.7-4.45-3.33-1.79-7.49-4.45-7.16-4.54,.08-.04,5.79-1.58,12.65-3.46,18.24-4.96,28.34-7.83,34.96-9.9,1.22-.38,2.25-.67,2.29-.63Zm51.81,12.16h.04c.16,.41-6.57,19.15-9.03,25.05-.55,1.33-.75,1.67-1.04,1.63-.71-.04-10.49-1.42-16.45-2.29-10.37-1.58-27.76-4.62-32.13-5.61l-1-.2,6.2-1.42c13.32-2.99,19.73-4.62,26.21-6.61,8.2-2.5,16.31-5.61,24.52-9.45,1.28-.59,2.38-1.04,2.66-1.08Z"/><path class="cls-3" d="M281.27,0c-.92-.12-15.7,5.2-25.22,9.07-12.85,5.25-22.85,10.25-29.01,14.56-2.29,1.63-5.16,4.49-5.61,5.61-.16,.41-.25,.92-.25,1.42l5.57,5.29,13.28,4.25,31.6,5.66,36.13,6.2,.37-3.13c-.12,0-.2-.04-.33-.04l-4.74-.75-.96-1.71c-4.92-8.66-10.33-19.4-13.48-26.64-2.46-5.61-4.78-12.12-6.08-16.77-.72-2.81-.81-2.98-1.27-3.02h0Zm-.67,2.13h.04s.2,1.2,.37,2.58c.71,5.83,1.99,11.45,4.04,17.53,1.54,4.58,1.54,4.33-.25,3.78-4.25-1.16-23.26-4.45-37.05-6.37-2.2-.29-4.08-.59-4.08-.63-.16-.16,9.94-5.45,14.4-7.53,5.72-2.64,21.36-9.17,22.53-9.37Zm-40.12,18.65l1.63,.55c8.82,2.99,31.01,7.24,43.25,8.24,1.38,.12,2.54,.25,2.58,.25,.04,.04-1.12,.67-2.62,1.38-5.91,2.95-12.4,6.57-16.9,9.37-1.33,.83-2.54,1.5-2.7,1.5s-1.04-.16-1.95-.29l-1.67-.25-4.17-4.08c-7.32-7.12-13.07-12.61-15.27-14.7l-2.17-1.97Zm-1.67,1.28l5.87,7.32c3.21,4.04,6.45,7.99,7.16,8.87s1.28,1.58,1.24,1.63c-.16,.12-8.5-1.5-12.91-2.5-4.54-1.04-6.41-1.54-9.19-2.42l-2.29-.75v-.59c.04-2.79,3.58-6.95,9.58-11.2l.55-.36Zm49.87,9.99c.16,0,.37,.37,.87,1.5,1.42,3.11,5.83,11.53,6.91,13.15,.33,.55,.92,.59-4.96-.37-14.11-2.29-18.65-3.03-18.65-3.11,0-.04,.41-.33,.96-.63,4.37-2.42,8.78-5.49,12.69-8.78,.96-.79,1.83-1.54,1.99-1.67,.04-.1,.12-.14,.18-.1Z"/><path class="cls-4" d="M221.71,28.67s-.92,1.46-.04,3.62c.55,1.33,2.12,2.95,3.91,4.62,0,0,18.52,18.06,20.76,20.64,10.23,11.82,14.7,23.47,15.11,39.53,.25,10.33-1.71,19.4-6.57,29.93-8.66,18.89-26.92,39.75-55.11,62.89l4.13-1.38c2.66-1.99,6.28-4.13,14.78-8.78,19.6-10.74,41.66-20.6,68.71-30.76,38.96-14.64,103.01-31.8,139.47-37.37l3.78-.59-.59-.92c-3.33-5.16-5.61-8.36-8.36-11.78-7.99-9.9-17.69-17.94-29.55-24.6-16.31-9.11-37.42-16.23-64.13-21.51-5.04-1-16.11-2.91-25.09-4.29-19.06-2.95-31.38-5-44.96-7.32-4.86-.83-12.16-2.08-16.98-3.11-2.5-.55-7.28-1.67-11.02-2.95-3.01-1.15-7.34-2.32-8.25-5.86Zm10.74,10.41s.71,.2,1.58,.51c1.58,.55,3.62,1.16,6.04,1.83,1.83,.51,3.66,.98,5.49,1.46,2.5,.63,4.58,1.2,4.62,1.2,.29,.29,4.49,13.73,5.91,18.89,.55,1.95,.96,3.62,.92,3.62-.04,.04-.51-.67-1.04-1.63-4.86-8.58-12.57-17.27-21.47-24.26-1.17-.83-2.05-1.58-2.05-1.63Zm20.48,5.67c.2,0,1.12,.12,2.24,.37,7.08,1.58,19.77,3.99,27.88,5.37,1.38,.2,2.46,.46,2.46,.55s-.51,.37-1.12,.71c-1.38,.71-6.91,3.99-8.74,5.25-4.62,3.07-8.78,6.41-11.78,9.41-1.2,1.2-2.25,2.2-2.25,2.2,0,0-.25-.71-.46-1.58-1.5-5.79-4.62-14.36-7.44-20.39-.46-.96-.83-1.83-.83-1.91,.01,.08,.01,.04,.05,.04h0Zm36.05,6.86c.25,.08,.67,1.5,1.5,4.62,1.54,6.04,2.25,12.77,1.99,19.06-.08,1.75-.16,3.37-.25,3.58l-.12,.41-2.16-.71c-4.45-1.42-11.69-3.54-17.89-5.29-3.54-.96-6.41-1.83-6.41-1.91,0-.25,5.16-5.41,7.36-7.36,4.19-3.69,15.59-12.51,15.97-12.39Zm2.87,.42c.12-.12,17.23,2.83,25.01,4.33,5.79,1.12,14.19,2.87,14.7,3.07,.25,.08-.63,.59-3.42,1.83-10.98,4.96-19.15,9.41-27.27,14.82-2.12,1.42-3.91,2.58-3.95,2.58s-.08-1.2-.08-2.66c0-7.91-1.58-15.9-4.49-22.63-.3-.68-.55-1.3-.51-1.34Zm44.25,8.74c.12,.12-.41,3.5-.92,5.49-1.5,6.2-5.53,15.39-10.49,24.06-.87,1.54-1.67,2.79-1.75,2.83-.08,.04-1.2-.59-2.5-1.34-4.82-2.83-10.33-5.49-16.31-7.99-1.67-.71-3.11-1.28-3.17-1.38-.29-.25,13.11-9.11,20.19-13.36,5.61-3.4,14.78-8.48,14.94-8.31Zm3.16,.49c.37,0,7.95,2.08,11.9,3.25,9.78,2.91,21.02,7.03,28.34,10.37l3.03,1.38-2.12,.51c-17.89,4.13-33.21,8.87-47.99,14.86-1.2,.51-2.29,.92-2.38,.92s.33-.96,.87-2.12c4.45-9.45,7.32-19.32,8.03-27.72,.05-.82,.18-1.45,.3-1.45h0Zm-75.4,17.32c.12-.12,5.91,1.24,9.03,2.12,4.74,1.34,14.82,4.7,14.82,4.96,0,.04-1.12,1-2.46,2.16-5.45,4.54-10.7,9.32-16.98,15.39-1.87,1.79-3.46,3.25-3.54,3.25s-.12-.25-.08-.59c.96-6.99,.75-15.98-.59-25.09-.12-1.16-.25-2.16-.2-2.2Zm121.56,.12c.08,.08-2.66,4.41-4.41,6.87-2.5,3.58-6.16,8.32-14.44,18.73-4.37,5.49-9.28,11.69-10.9,13.77-1.67,2.08-3.03,3.82-3.09,3.82-.04,0-.59-.75-1.16-1.67-4.66-6.99-10.25-13.11-16.86-18.61-1.24-1.04-2.62-2.16-3.07-2.5-.46-.33-.83-.67-.83-.71,0-.12,7.08-3.17,12.44-5.33,9.41-3.82,22.23-8.4,31.84-11.37,5.03-1.57,10.4-3.1,10.48-3.02Zm3.21,.83c.16-.04,1.16,.46,2.38,1.16,10.11,5.79,20.01,13.24,27.84,20.9,2.2,2.16,7.66,7.83,7.57,7.87,0,0-1.91,.16-4.17,.33-17.53,1.34-39.96,5.04-61.51,10.23-1.46,.33-2.75,.63-2.83,.63s1.54-1.63,3.58-3.58c12.65-12.2,18.44-19.89,25.26-33.63,.97-2.04,1.8-3.78,1.89-3.91t0,0Zm-92.68,9.48c.59,.12,6,2.66,10.07,4.7,3.74,1.87,9.37,4.86,9.66,5.12,.04,.04-1.95,1.08-4.41,2.29-7.83,3.91-14.52,7.62-21.51,11.86-1.99,1.2-3.66,2.21-3.7,2.21-.16,0-.12-.16,1-2.21,3.74-6.83,6.75-14.99,8.46-22.94,.15-.61,.33-1.04,.45-1.04Zm-5.41,1c.12,.12-1.28,5.25-2.16,8.03-1.71,5.29-4.58,11.9-7.36,16.9-.67,1.16-1.67,2.87-2.21,3.82l-1.04,1.67-2.34-2.24c-2.7-2.62-4.92-4.25-7.75-5.7-1.12-.59-1.99-1.08-1.99-1.16,0-.33,7.12-6.79,12.57-11.45,3.91-3.37,12.14-10,12.28-9.88Zm33.08,13.62l2.04,1.33c4.66,3.03,10.15,7.08,14.36,10.61,2.38,1.95,6.95,6.08,7.87,7.08l.51,.55-3.37,.96c-19.06,5.29-33.8,9.99-50.98,16.31-1.91,.71-3.54,1.28-3.66,1.28-.25,0-.46,.2,3.82-3.74,10.98-10.11,20.72-21.27,27.96-32.13l1.46-2.24Zm-8.7,2.16c.08,.08-5.61,8.11-9.03,12.65-4.08,5.41-11.32,14.48-16.31,20.39-2.08,2.46-3.87,4.49-3.95,4.54-.12,.04-.16-.59-.16-1.54,0-5.04-1.28-10.41-3.54-14.99-.96-1.91-1.12-2.38-.92-2.58,.79-.71,12.9-7.62,20.56-11.73,5.15-2.73,13.22-6.82,13.35-6.73h0Zm-52.61,12.91c.12,0,1.08,.51,2.16,1.08,2.66,1.46,5.04,3.07,7.16,4.82,.08,.08-1,.96-2.42,1.99-3.95,2.83-9.94,7.36-13.44,10.15-3.66,2.91-3.78,2.99-3.37,2.38,2.75-4.21,4.13-6.57,5.57-9.62,1.28-2.7,2.58-5.91,3.5-8.7,.34-1.19,.77-2.1,.85-2.1Zm14.03,10.98c.2-.04,.46,.33,1.58,1.99,2.38,3.54,4.21,8.28,4.66,12.12l.08,.83-5.7,2.2c-10.2,3.95-19.6,7.87-25.97,10.78-1.79,.83-4.9,2.34-6.95,3.33-2.04,1.04-3.7,1.83-3.7,1.79s1.28-1,2.87-2.16c12.44-9.03,23.22-18.93,31.3-28.84,.87-1.04,1.67-1.99,1.75-2.04h.08Zm-6.46,1.57c.16,.16-4.58,5.53-7.83,8.82-8.03,8.2-15.98,14.6-25.84,20.85-1.24,.79-2.38,1.5-2.5,1.58-.29,.16,.08-.25,4.41-4.96,2.75-2.95,4.82-5.45,7.2-8.54,1.58-2.04,1.87-2.34,4.17-3.95,6.12-4.41,20.23-13.97,20.39-13.81Z"/><path class="cls-2" d="M89.64,303.61c-.76,0-1.53,.07-2.29,.07-15.5,.82-25.97,7.65-32.09,20.98-5.23,12.05-4.66,27.81,.05,39.94,5.49,11.84,14.36,18.1,29.15,20.46,3.13,.52,5.23,2.23,11.3,9.32l7.46,8.74h13.54l-9-9.07c-4.97-4.97-9-9.3-9-9.69s1.9-1.22,4.21-1.91c7.6-2.29,13.89-8.17,18.3-17.16,3.57-7.21,4.08-9.45,4.59-18.43,1.35-26.75-12.74-43.47-36.21-43.26h0Zm11.86,69.9c-6.58,3.18-16.15,3.82-22.38,1.53-6.45-2.36-12.7-9.07-15.5-16.65-3.13-8.29-2.68-23.59,.89-30.49,5.74-10.97,13.33-16.02,24.42-16.02,16.46,0,25.82,10.08,27.05,29.03,.97,15.83-4.33,27.69-14.48,32.61h0Zm233.77-47.07c-5.68,0-10.03,2.29-12.95,6.83l-2.29,3.58v-9.32h-9.82v55.88h9.82v-17.87c0-16.34,.2-18.24,2.49-22.72,3.14-6.13,8.55-9.18,13.78-7.72l3.51,1.02v-9.69h-4.54Zm-57.71-.52c-1.93,0-3.96,.26-6,.7-13.14,3.44-20.56,16.02-20.09,28.96,0,10.85,2.1,16.26,7.34,21.94,10.71,8.8,20.41,9.49,33.48,4.78,2.23-.96,4.66-2.05,4.66-2.05v-8.8l-4.66,2.42c-10.59,4.6-18.55,4.6-24.94-.82-4.07-4.15-5.86-9.12-6.69-14.79h39.61v-7.54c-.01-15.34-9.25-25.04-22.7-24.79h0Zm-16.02,24.51s1.46-9.58,6.88-13.35c2.61-1.84,5.61-2.73,8.54-2.73s5.87,.96,8.29,2.8c4.97,3.82,5.81,13.21,5.81,13.21h-29.53v.07h.01Zm-236.81-10.08c-10.65-6.45-15.38-11.11-14.79-16.58,1.65-15.18,20.41-13.07,30.79-7.34l.07-10.2s-5.74-2.49-13.97-2.62c-12.62-.19-20.79,3.95-24.62,12.38-5.61,12.43-.64,21.82,17.33,32.27,10.09,5.87,14.56,10.97,14.56,16.53,0,11.49-13.85,15.49-28.13,8.29-2.94-1.46-5.42-2.69-5.56-2.69-.52,3.25-.25,11.05-.25,11.05,0,0,4.38,1.84,10.97,3.11,16.32,3.25,31.19-4.4,32.58-16.84,1.23-11.68-2.99-17.8-18.99-27.35h0Zm397.48-14.56c-1.91,0-3.95,.26-6.07,.71-13.13,3.44-20.53,16.02-20.03,28.96,0,10.82,2.1,16.19,7.34,21.87,10.71,8.8,20.41,9.51,33.55,4.78,2.23-.96,4.64-2.04,4.64-2.04v-8.81l-4.66,2.43c-10.6,4.59-18.58,4.59-24.94-.83-4.1-4.14-5.87-9.06-6.71-14.79h39.55v-7.54c0-15.29-9.25-25-22.7-24.74h.03Zm-16.02,24.51s1.48-9.56,6.9-13.4c2.61-1.84,5.6-2.75,8.54-2.75s5.87,.96,8.29,2.81c4.97,3.82,5.81,13.26,5.81,13.26h-29.53v.07h0Zm-180.04-9.82c-10.65-6.43-15.35-11.11-14.79-16.58,1.65-15.19,20.41-13.07,30.79-7.34l.07-10.2s-5.74-2.49-13.97-2.61c-12.62-.19-20.79,3.95-24.62,12.38-5.61,12.43-.57,21.82,17.35,32.27,10.08,5.86,14.55,10.9,14.55,16.46,0,11.49-13.84,15.56-28.13,8.29-2.92-1.46-5.41-2.66-5.56-2.66-.52,3.25-.25,11.05-.25,11.05,0,0,4.33,1.78,10.9,3.11,16.34,3.26,31.2-4.38,32.61-16.83,1.2-11.64-3.01-17.76-18.95-27.33h0Zm253.78-14.17c-5.68,0-10.07,2.31-12.95,6.83l-2.29,3.57v-9.3h-9.82v55.87h9.82v-17.87c0-16.32,.19-18.24,2.49-22.7,3.14-6.12,8.55-9.18,13.78-7.72l3.51,1.02v-9.71h-4.54Zm-331.9,13.85v-35.6h-9.9v78.83h41.65v-9.32h-31.75v-33.92h0Zm229.03,11.11l-8.17,21.24-7.85-21.36-7.98-23.67h-10.14c6.57,18.62,13.71,37.57,20.91,55.94,3.13,.07,6.26,0,9.37,0l11.02-27.68,11.23-28.25h-9.69s-4.26,11.22-8.72,23.78h0Zm-206.21-68.18c1.6,0,2.92-.51,4.03-1.61,1.08-1.08,1.65-2.35,1.65-3.95s-.57-2.92-1.65-3.95c-1.09-1.02-2.36-1.53-3.95-1.53s-2.94,.52-4.02,1.6c-1.09,1.08-1.6,2.42-1.6,3.95,0,1.61,.52,2.94,1.6,3.95,1.02,1.02,2.35,1.53,3.95,1.53h-.01Zm-3.51-9.06c.96-.96,2.1-1.39,3.58-1.39,1.39,0,2.54,.44,3.51,1.39,.96,.96,1.46,2.1,1.46,3.51s-.51,2.62-1.46,3.57c-.97,.96-2.12,1.41-3.51,1.41s-2.55-.44-3.51-1.41c-.96-.96-1.46-2.16-1.46-3.57,.01-1.41,.45-2.55,1.39-3.51Zm2.36,4.03h.64c.45,0,.9,.44,1.28,1.27l.76,1.72h1.2l-.96-1.91c-.38-.76-.76-1.22-1.22-1.34,.56-.14,1.01-.33,1.33-.7,.33-.33,.44-.78,.44-1.28,0-.59-.18-1.02-.57-1.35-.44-.37-1.15-.56-2.05-.56h-2.04v7.14h1.02v-3.01h.15Zm0-3.32h.89c.64,0,1.09,.14,1.35,.33,.25,.19,.3,.44,.3,.89,0,.83-.52,1.22-1.46,1.22h-1.09v-2.43h.01Zm-163.59,2.69c0-2.49-.07-4.33-.14-5.42h.05c.26,1.28,.57,2.24,.82,2.88l9.51,21.24h1.6l9.51-21.43c.26-.59,.52-1.46,.83-2.69h.07c-.19,2.12-.26,3.96-.26,5.44v18.74h3.25v-27.87h-4.08l-8.74,19.38c-.33,.76-.76,1.91-1.34,3.44h-.14c-.19-.75-.64-1.9-1.27-3.31l-8.51-19.59H2.91v27.87h3.13v-18.69h.04Zm32.4,.05h2.81v17.36h-2.81v-17.36Zm1.41-6.37c.59,0,1.08-.19,1.46-.59,.38-.38,.64-.87,.64-1.46s-.19-1.08-.64-1.46c-.4-.38-.9-.59-1.48-.59s-1.08,.19-1.46,.59c-.38,.38-.64,.89-.64,1.46,0,.64,.19,1.08,.64,1.46,.44,.38,.89,.59,1.48,.59h0Zm21.43,24.1v-3.06c-1.53,1.15-3.18,1.72-4.9,1.72-2.05,0-3.7-.7-4.92-2.05-1.2-1.33-1.84-3.18-1.84-5.49s.64-4.33,1.98-5.79c1.28-1.41,2.94-2.1,4.97-2.1,1.67,0,3.25,.52,4.73,1.54v-3.25c-1.34-.7-2.87-1.02-4.59-1.02-3.18,0-5.67,1.02-7.53,3.01-1.84,1.98-2.8,4.66-2.8,7.9,0,2.88,.82,5.3,2.54,7.16,1.79,1.9,4.08,2.87,6.88,2.87,2.16-.07,3.93-.52,5.48-1.42Zm8.03-9.25c0-2.29,.51-4.14,1.46-5.41,.89-1.15,1.98-1.72,3.25-1.72,1.08,0,1.84,.19,2.42,.64v-3.32c-.44-.19-1.08-.26-1.9-.26-1.15,0-2.17,.38-3.07,1.09-.96,.75-1.71,1.9-2.16,3.36h-.07v-4.07h-3.18v19.89h3.18v-10.2h.07Zm18.3,10.6c3.01,0,5.41-.97,7.2-2.88,1.79-1.9,2.68-4.47,2.68-7.65s-.82-5.74-2.49-7.6c-1.65-1.84-3.95-2.75-6.95-2.75s-5.41,.89-7.2,2.62c-1.91,1.9-2.92,4.59-2.92,8.03,0,3.01,.82,5.49,2.54,7.34,1.79,1.93,4.15,2.88,7.14,2.88h0Zm-4.54-16.2c1.22-1.28,2.81-1.91,4.78-1.91s3.58,.64,4.73,1.91c1.15,1.34,1.72,3.25,1.72,5.81s-.52,4.34-1.6,5.61c-1.08,1.34-2.68,2.05-4.78,2.05s-3.63-.71-4.85-2.05c-1.2-1.35-1.79-3.18-1.79-5.61-.11-2.42,.52-4.4,1.79-5.81Zm28.39,14.47c1.22-1.08,1.86-2.42,1.86-4.08,0-1.46-.52-2.68-1.46-3.63-.78-.76-1.98-1.46-3.7-2.17-1.54-.64-2.49-1.22-3.01-1.67-.51-.51-.82-1.15-.82-2.05,0-.83,.33-1.46,.96-1.98,.64-.51,1.46-.76,2.55-.76,1.72,0,3.18,.45,4.54,1.41v-3.18c-1.28-.64-2.69-.96-4.28-.96-2.05,0-3.77,.56-5.04,1.65-1.34,1.08-1.98,2.49-1.98,4.14,0,1.46,.44,2.68,1.27,3.57,.7,.76,1.9,1.53,3.57,2.23,1.6,.7,2.68,1.34,3.25,1.84,.57,.52,.82,1.15,.82,1.9,0,1.86-1.27,2.81-3.76,2.81-1.91,0-3.63-.63-5.18-1.9v3.44c1.39,.83,3.06,1.22,4.9,1.22,2.36-.12,4.21-.7,5.49-1.84v.03Zm15.2-19.12c-3.01,0-5.41,.89-7.2,2.62-1.9,1.9-2.92,4.59-2.92,8.03,0,3.01,.83,5.49,2.54,7.34,1.79,1.91,4.15,2.87,7.14,2.87s5.41-.97,7.2-2.88c1.79-1.9,2.69-4.47,2.69-7.65s-.83-5.74-2.49-7.6c-1.72-1.84-4.03-2.75-6.95-2.75h-.01Zm6.17,10.46c0,2.43-.51,4.34-1.6,5.61-1.08,1.34-2.68,2.05-4.78,2.05s-3.63-.71-4.85-2.05c-1.2-1.35-1.79-3.18-1.79-5.61,0-2.55,.64-4.54,1.91-5.86,1.2-1.27,2.8-1.91,4.78-1.91s3.57,.64,4.71,1.91c1.04,1.41,1.61,3.31,1.61,5.86h0Zm8.62,9.96h3.18v-17.23h4.66v-2.68h-4.66v-3.07c0-2.8,1.08-4.19,3.32-4.19,.75,0,1.52,.19,2.09,.51v-2.87c-.57-.26-1.34-.31-2.29-.31-1.72,0-3.13,.52-4.28,1.6-1.34,1.27-2.05,2.92-2.05,5.16v3.26h-3.36v2.68h3.36v17.16h.03Zm13.07-5.44c0,3.89,1.72,5.87,5.23,5.87,1.27,0,2.23-.2,3.01-.66v-2.73c-.59,.44-1.28,.64-2.05,.64-1.08,0-1.84-.26-2.29-.83-.45-.57-.71-1.53-.71-2.87v-11.23h5.04v-2.68h-5.04v-5.86c-1.09,.38-2.17,.7-3.18,1.02v4.84h-3.44v2.68h3.44v11.8h0Zm342.32,36.68c-1.08-1.02-2.36-1.53-3.95-1.53s-2.94,.52-4.03,1.61c-1.08,1.08-1.6,2.42-1.6,3.95s.52,2.92,1.58,3.95c1.08,1.02,2.42,1.53,4.03,1.53s2.92-.52,4.03-1.6c1.08-1.09,1.64-2.36,1.64-3.95-.05-1.61-.64-2.94-1.71-3.96h0Zm-.52,7.53c-.96,.96-2.1,1.39-3.51,1.39s-2.54-.44-3.51-1.39c-.96-.97-1.46-2.17-1.46-3.58s.44-2.54,1.41-3.51c.96-.96,2.1-1.39,3.57-1.39s2.54,.44,3.51,1.39c.96,.97,1.46,2.12,1.46,3.51,0,1.48-.44,2.61-1.46,3.58Zm-2.87-3.25c.57-.14,1.02-.38,1.34-.7s.44-.78,.44-1.28c0-.57-.18-1.02-.57-1.34-.44-.37-1.15-.56-2.05-.56h-2.04v7.14h1.02v-3.01h.64c.44,0,.87,.44,1.27,1.27l.76,1.72h1.22l-.96-1.91c-.33-.83-.71-1.22-1.09-1.34h.01Zm-.7-.64h-1.09v-2.42h.9c.64,0,1.08,.12,1.34,.31s.31,.44,.31,.89c0,.83-.52,1.22-1.46,1.22h0Zm-177.95-55.61h.89v-7.14h2.36v-.89h-5.61v.89h2.36v7.14h0Zm5.41-5.37c0-.7,0-1.27-.05-1.58,.05,.38,.19,.64,.25,.82l2.75,6.13h.44l2.75-6.19c.07-.19,.14-.44,.26-.76-.05,.64-.05,1.15-.05,1.53v5.41h.96v-8.03h-1.15l-2.49,5.55c-.05,.2-.26,.59-.38,1.02h-.07c-.05-.26-.18-.52-.37-.96l-2.49-5.61h-1.28v8.05h.9v-5.37h.04Z"/></svg>