<?xml version="1.0" encoding="UTF-8"?>
<svg version="1.1" viewBox="0 0 2048 2044" width="1280" height="1280" xmlns="http://www.w3.org/2000/svg">
<path transform="translate(0)" d="m0 0h2048v2044h-2048z" fill="#FEFEFE"/>
<path transform="translate(677,556)" d="m0 0h694l-1 4-16 28-10 17-9 15-14 24-12 20-17 29-10 17-8 13-15 26-9 15-10 17-15 25-12 21-18 30-15 26-15 25-14 24-15 25-14 24-13 22-16 27-8 14-7 11-6 11-12 20-20 34-13 22-4 2-9-15-8-13-14-24-12-20-17-29-13-22-30-50-9-16-17-28-14-24-21-35-15-26-15-25-13-22-21-35-15-26-27-45-16-27-14-24-9-15-17-29-9-15-10-17-2-5z" fill="#010101"/>
<path transform="translate(475,556)" d="m0 0h101l5 5 16 27 12 21 13 22 14 24 11 19 14 24 17 29 15 26 12 20 13 23 10 17 13 22 15 26 6 10 8 14 10 17 9 15 10 18 8 13 30 52 8 13 12 21 13 22 12 21 12 20 13 23 18 30 12 21 16 27 12 21 10 17 14 24 17 29 13 22 2 4h2l1-6 10-16 13-22 27-45 10-17 15-25 17-28 8-14 13-22 10-17 8-13 13-22 12-20 13-22 21-35 19-32 12-20 13-22 10-17 36-60 10-17 8-13 17-29 10-17 8-13 20-34 8-13 9-15 13-22 19-32 8-13 17-29 15-25 7-12h100l-1 5-10 17-12 21-15 25-13 22-8 14-12 20-26 44-11 19-15 25-15 26-16 27-9 15-15 26-9 15-16 27-21 36-20 34-18 30-12 21-18 30-28 48-9 15-13 22-12 21-17 28-15 26-7 12-10 17-8 13-12 21-13 22-12 20-14 24-9 15-14 24-26 44-17 29-10 16-5 9-3 3-4-1-8-13-13-22-19-32-24-40-17-29-15-25-32-54-21-35-15-26-36-60-13-22-12-20-17-29-19-32-12-20-16-27-21-35-15-26-17-28-17-29-24-40-11-19-17-28-14-24-21-35-13-22-17-29-12-20-13-22-30-50-14-24-4-7z" fill="#010101"/>
<path transform="translate(866,642)" d="m0 0h352l1 2-8 13-26 46-14 25-14 24-10 18-14 24-15 27-8 14-15 26-16 28-9 16-13 23-10 17-16 28-7 12-3-3-8-14-13-23-14-24-9-16-15-26-12-21-14-24-12-22-6-10-15-26-13-23-14-24-16-28-13-23-20-34v-1z" fill="#fff"/>
</svg>
